<svg xmlns="http://www.w3.org/2000/svg" viewBox="0 0 512 512" width="512" height="512" fill="none">
  <defs>
    <linearGradient id="pgonHexGrad" x1="5%" y1="0%" x2="95%" y2="100%">
      <stop offset="0%" stop-color="#9C17F7" />
      <stop offset="30%" stop-color="#8612E9" />
      <stop offset="70%" stop-color="#6008DC" />
      <stop offset="100%" stop-color="#4600CD" />
    </linearGradient>
  </defs>
  
  <g transform="translate(48.608, 23.695) scale(10.300)">
    <!-- Purple Gradient Hexagon -->
    <path d="M22.3851 0.602886L38.0202 9.62981C39.4125 10.4337 40.2702 11.9192 40.2702 13.5269V31.5808C40.2702 33.1885 39.4125 34.674 38.0202 35.4779L22.3851 44.5048C20.9928 45.3087 19.2774 45.3087 17.8851 44.5048L2.25 35.4779C0.857696 34.674 0 33.1885 0 31.5808V13.5269C0 11.9192 0.857695 10.4337 2.25 9.62981L17.8851 0.602886C19.2774 -0.200962 20.9928 -0.200962 22.3851 0.602886Z" fill="url(#pgonHexGrad)" />
    
    <!-- Bird Silhouette in Midnight Purple -->
    <path d="M5.32259 23.8664C5.77259 29.5664 8.51009 33.0538 10.3851 34.3663L15.2601 37.4601C20.5101 35.1163 21.8226 32.6788 23.1351 29.4914C24.1851 26.9413 21.8226 24.6789 20.5101 23.8664L4.19759 14.1164C3.44759 19.7414 6.82259 22.1789 8.13509 23.1164C9.18509 23.8664 15.3226 28.1789 18.2601 30.2414C17.2101 30.6914 9.32259 26.1164 5.32259 23.8664Z" fill="#120224" />
    <path d="M30.6351 29.8664C29.1351 35.2663 23.0101 39.2414 20.1351 40.5539L17.1351 38.65C21.6351 37.3086 27.4056 30.8679 25.3851 25.9289C23.6976 21.8038 17.8851 19.7414 14.8851 17.8664C16.3851 13.3664 22.5726 7.55385 29.3226 10.5538C34.7226 12.9538 36.3226 17.5538 36.4476 19.5538C31.7601 18.6163 32.5101 23.1163 30.6351 29.8664Z" fill="#120224" />
    
    <!-- Bird Eye Circle with matching Hexagon Gradient -->
    <path d="M29.1351 16.5538C29.1351 17.3823 28.4635 18.0538 27.6351 18.0538C26.8067 18.0538 26.1351 17.3823 26.1351 16.5538C26.1351 15.7254 26.8067 15.0538 27.6351 15.0538C28.4635 15.0538 29.1351 15.7254 29.1351 16.5538Z" fill="url(#pgonHexGrad)" />
  </g>
</svg>